HIERARCHY
ROOT Hips
{
	OFFSET 0.00000 0.00000 0.00000
	CHANNELS 6 Xposition Yposition Zposition Zrotation Yrotation Xrotation 
	JOINT LHipJoint
	{
		OFFSET 0 0 0
		CHANNELS 3 Zrotation Yrotation Xrotation
		JOINT LeftUpLeg
		{
			OFFSET 1.42489 -1.84941 0.69647
			CHANNELS 3 Zrotation Yrotation Xrotation
			JOINT LeftLeg
			{
				OFFSET 2.44443 -6.71602 0.00000
				CHANNELS 3 Zrotation Yrotation Xrotation
				JOINT LeftFoot
				{
					OFFSET 2.62838 -7.22137 0.00000
					CHANNELS 3 Zrotation Yrotation Xrotation
					JOINT LeftToeBase
					{
						OFFSET 0.24036 -0.66037 2.29953
						CHANNELS 3 Zrotation Yrotation Xrotation
						End Site
						{
							OFFSET 0.00000 -0.00000 1.19837
						}
					}
				}
			}
		}
	}
	JOINT RHipJoint
	{
		OFFSET 0 0 0
		CHANNELS 3 Zrotation Yrotation Xrotation
		JOINT RightUpLeg
		{
			OFFSET -1.37055 -1.84941 0.69647
			CHANNELS 3 Zrotation Yrotation Xrotation
			JOINT RightLeg
			{
				OFFSET -2.54834 -7.00152 0.00000
				CHANNELS 3 Zrotation Yrotation Xrotation
				JOINT RightFoot
				{
					OFFSET -2.65692 -7.29983 0.00000
					CHANNELS 3 Zrotation Yrotation Xrotation
					JOINT RightToeBase
					{
						OFFSET -0.18839 -0.51760 2.29390
						CHANNELS 3 Zrotation Yrotation Xrotation
						End Site
						{
							OFFSET -0.00000 -0.00000 1.18261
						}
					}
				}
			}
		}
	}
	JOINT LowerBack
	{
		OFFSET 0 0 0
		CHANNELS 3 Zrotation Yrotation Xrotation
		JOINT Spine
		{
			OFFSET 0.05220 2.15489 0.05011
			CHANNELS 3 Zrotation Yrotation Xrotation
			JOINT Spine1
			{
				OFFSET -0.07653 2.14219 -0.05668
				CHANNELS 3 Zrotation Yrotation Xrotation
				JOINT Neck
				{
					OFFSET 0 0 0
					CHANNELS 3 Zrotation Yrotation Xrotation
					JOINT Neck1
					{
						OFFSET 0.01370 1.58638 0.01447
						CHANNELS 3 Zrotation Yrotation Xrotation
						JOINT Head
						{
							OFFSET 0.23548 1.54190 -0.21747
							CHANNELS 3 Zrotation Yrotation Xrotation
							End Site
							{
								OFFSET 0.07132 1.59823 -0.08163
							}
						}
					}
				}
				JOINT LeftShoulder
				{
					OFFSET 0 0 0
					CHANNELS 3 Zrotation Yrotation Xrotation
					JOINT LeftArm
					{
						OFFSET 3.47056 1.45357 -0.58896
						CHANNELS 3 Zrotation Yrotation Xrotation
						JOINT LeftForeArm
						{
							OFFSET 5.19069 -0.00000 0.00000
							CHANNELS 3 Zrotation Yrotation Xrotation
							JOINT LeftHand
							{
								OFFSET 3.30016 -0.00000 0.00000
								CHANNELS 3 Zrotation Yrotation Xrotation
								JOINT LeftFingerBase
								{
									OFFSET 0 0 0
									CHANNELS 3 Zrotation Yrotation Xrotation
									JOINT LeftHandIndex1
									{
										OFFSET 0.70770 -0.00000 0.00000
										CHANNELS 3 Zrotation Yrotation Xrotation
										End Site
										{
											OFFSET 0.57056 -0.00000 0.00000
										}
									}
								}
								JOINT LThumb
								{
									OFFSET 0 0 0
									CHANNELS 3 Zrotation Yrotation Xrotation
									End Site
									{
										OFFSET 0.57928 -0.00000 0.57928
									}
								}
							}
						}
					}
				}
				JOINT RightShoulder
				{
					OFFSET 0 0 0
					CHANNELS 3 Zrotation Yrotation Xrotation
					JOINT RightArm
					{
						OFFSET -2.89018 2.03305 -0.26731
						CHANNELS 3 Zrotation Yrotation Xrotation
						JOINT RightForeArm
						{
							OFFSET -5.23924 -0.00000 0.00000
							CHANNELS 3 Zrotation Yrotation Xrotation
							JOINT RightHand
							{
								OFFSET -3.32953 -0.00000 0.00000
								CHANNELS 3 Zrotation Yrotation Xrotation
								JOINT RightFingerBase
								{
									OFFSET 0 0 0
									CHANNELS 3 Zrotation Yrotation Xrotation
									JOINT RightHandIndex1
									{
										OFFSET -0.60741 -0.00000 0.00000
										CHANNELS 3 Zrotation Yrotation Xrotation
										End Site
										{
											OFFSET -0.48971 -0.00000 0.00000
										}
									}
								}
								JOINT RThumb
								{
									OFFSET 0 0 0
									CHANNELS 3 Zrotation Yrotation Xrotation
									End Site
									{
										OFFSET -0.49719 -0.00000 0.49719
									}
								}
							}
						}
					}
				}
			}
		}
	}
}
MOTION
Frames: 16
Frame Time: .0083333
1.3109 17.4691 -17.9337 0 0 0 0 0 0 -21 0 0 0 0 0 0 0 0 0 0 0 0 0 0 21 0 0 0 0 0 0 0 0 0 0 0 0 0 0 0 0 0 0 0 0 0 0 -16 0 0 21 0 0 11 0 0 0 -8 0 0 0 0 0 0 0 0 0 0 0 0 0 0 0 0 0 0 0 0 8 0 0 0 0 0 0 0 0 0 0 0 0 0 0 0 0 0
1.3109 17.4691 -17.9337 -2.6511 -7.5702 2.5478 0.0000 0.0000 0.0000 -15.8238 5.3531 -14.0908 3.1705 10.9661 32.1657 1.6188 6.1136 -26.9048 0.1238 -2.2679 -6.2467 0.0000 0.0000 0.0000 25.0975 1.3491 -14.3505 -3.8949 -12.0192 35.7999 -1.9270 0.5866 -26.1027 -0.0210 -0.9347 2.5692 3.9920 -1.5330 -3.0695 0.2807 -2.2898 3.5108 -2.1148 -0.9882 5.2191 -12.2440 -11.6673 -1.3294 18.3992 -16.0825 1.0640 6.7643 -7.9074 3.0802 -0.0000 0.0000 0.0000 -85.2384 -2.6048 19.8532 11.9874 -19.7858 -2.0980 -0.0000 0.0000 -4.8598 8.6914 -9.3388 -1.4210 -7.1250 0.0000 -0.0000 -13.0257 20.6367 7.8001 -0.0000 0.0000 0.0000 84.4286 0.6034 30.0672 -15.8785 25.3556 -3.5938 0.0000 -0.0000 -1.0012 -9.1899 -4.2912 0.6936 7.1250 -0.0000 -0.0000 14.2710 -34.0504 3.9372
1.3152 17.4708 -17.9364 -2.6571 -7.4645 2.5852 0.0000 0.0000 0.0000 -15.8325 5.2369 -14.1058 3.1633 10.9548 32.1276 1.6133 6.1405 -26.8819 0.1236 -2.2663 -6.2423 0.0000 0.0000 0.0000 25.0946 1.3204 -14.4148 -3.8944 -12.0185 35.7976 -1.9224 0.5151 -26.0935 -0.0189 -0.8885 2.4420 3.9868 -1.5523 -3.1033 0.2852 -2.3169 3.5046 -2.1100 -1.0018 5.2305 -12.2715 -11.6819 -1.3828 18.3699 -16.1022 1.1170 6.7527 -7.9133 3.1071 0.0000 0.0000 0.0000 -85.2309 -2.6536 19.8796 12.0934 -19.9446 -2.1340 -0.0000 0.0000 -5.0227 8.4767 -9.1136 -1.3523 -7.1250 0.0000 -0.0000 -13.1930 20.8654 7.8356 0.0000 0.0000 0.0000 84.4499 0.5785 30.0075 -15.7847 25.2278 -3.5537 0.0000 -0.0000 -0.8731 -9.0841 -4.3935 0.7017 7.1250 -0.0000 -0.0000 14.3741 -34.1461 3.9328
1.3215 17.4722 -17.9411 -2.6783 -7.4555 2.6336 0.0000 0.0000 0.0000 -15.8409 5.1766 -14.1497 3.1607 10.9507 32.1138 1.6129 6.1548 -26.8875 0.1240 -2.2696 -6.2513 0.0000 0.0000 0.0000 25.0920 1.3413 -14.4790 -3.8914 -12.0144 35.7830 -1.9158 0.4990 -26.0529 -0.0185 -0.8773 2.4112 4.0204 -1.5423 -3.1014 0.2824 -2.3042 3.4753 -2.1303 -0.9952 5.1982 -12.3810 -11.6728 -1.3313 18.4397 -16.0973 1.1195 6.7942 -7.9133 3.1140 0.0000 -0.0000 0.0000 -85.2060 -2.6647 19.9350 12.2121 -20.1219 -2.1747 -0.0000 0.0000 -5.1890 8.2441 -9.0954 -1.3121 -7.1250 0.0000 -0.0000 -13.3586 20.8906 7.9317 0.0000 -0.0000 0.0000 84.4698 0.5108 29.9734 -15.7059 25.1202 -3.5202 0.0000 -0.0000 -0.8071 -9.1041 -4.2914 0.6870 7.1250 -0.0000 -0.0000 14.3398 -34.0469 3.9585
1.3268 17.4727 -17.9455 -2.7240 -7.4424 2.6522 0.0000 0.0000 0.0000 -15.8133 5.1422 -14.1665 3.1573 10.9455 32.0962 1.6126 6.1643 -26.8911 0.1223 -2.2545 -6.2095 0.0000 0.0000 0.0000 25.1197 1.3228 -14.5153 -3.8885 -12.0106 35.7695 -1.9105 0.5013 -26.0153 -0.0181 -0.8691 2.3886 4.0681 -1.5160 -3.0486 0.2751 -2.2679 3.4435 -2.1595 -0.9771 5.1352 -12.3577 -11.6927 -1.3227 18.4109 -16.1296 1.1608 6.7781 -7.9286 3.1250 0.0000 -0.0000 0.0000 -85.1494 -2.6579 20.1242 12.3159 -20.2766 -2.2105 -0.0000 0.0000 -5.4087 8.1975 -9.2005 -1.3195 -7.1250 0.0000 -0.0000 -13.3839 20.7888 7.9792 0.0000 -0.0000 0.0000 84.5223 0.4117 29.8770 -15.6298 25.0161 -3.4879 0.0000 -0.0000 -0.7201 -9.0430 -4.3213 0.6871 7.1250 -0.0000 -0.0000 14.3941 -34.0735 3.9647
1.3315 17.4737 -17.9501 -2.7507 -7.3840 2.6447 0.0000 0.0000 0.0000 -15.8025 5.0840 -14.1554 3.1546 10.9412 32.0820 1.6094 6.1925 -26.8849 0.1217 -2.2489 -6.1940 0.0000 0.0000 0.0000 25.1364 1.2831 -14.5303 -3.8854 -12.0064 35.7546 -1.9076 0.4803 -26.0016 -0.0182 -0.8712 2.3946 4.0701 -1.5309 -3.0065 0.2805 -2.2861 3.4478 -2.1550 -0.9866 5.1145 -12.3861 -11.6865 -1.3182 18.4421 -16.1224 1.1551 6.7931 -7.9253 3.1267 -0.0000 0.0000 0.0000 -85.1068 -2.6616 20.4263 12.4202 -20.4318 -2.2468 -0.0000 0.0000 -5.5688 8.4346 -9.4888 -1.4003 -7.1250 0.0000 -0.0000 -13.1965 20.4978 7.9505 -0.0000 0.0000 0.0000 84.5294 0.3593 29.8883 -15.5760 24.9424 -3.4652 0.0000 -0.0000 -0.6987 -9.0773 -4.3145 0.6886 7.1250 -0.0000 -0.0000 14.3654 -34.0684 3.9582
1.3365 17.4746 -17.9542 -2.7769 -7.3330 2.6525 0.0000 0.0000 0.0000 -15.7933 5.0222 -14.1586 3.1521 10.9372 32.0685 1.6076 6.2110 -26.8832 0.1210 -2.2428 -6.1771 0.0000 0.0000 0.0000 25.1501 1.2559 -14.5560 -3.8821 -12.0019 35.7385 -1.9039 0.4568 -25.9837 -0.0179 -0.8643 2.3755 4.0831 -1.5341 -2.9744 0.2810 -2.2892 3.4378 -2.1607 -0.9885 5.0851 -12.4103 -11.6901 -1.3115 18.4533 -16.1299 1.1671 6.7995 -7.9290 3.1333 0.0000 0.0000 0.0000 -85.0735 -2.6660 20.6087 12.5266 -20.5896 -2.2841 -0.0000 0.0000 -5.7177 8.4623 -9.6129 -1.4232 -7.1250 0.0000 -0.0000 -13.1685 20.3747 7.9702 0.0000 0.0000 0.0000 84.5511 0.2967 29.8565 -15.5110 24.8531 -3.4378 0.0000 -0.0000 -0.6483 -9.0695 -4.3112 0.6875 7.1250 -0.0000 -0.0000 14.3710 -34.0647 3.9611
1.3413 17.4753 -17.9583 -2.8029 -7.2806 2.6549 0.0000 0.0000 0.0000 -15.7832 4.9632 -14.1546 3.1489 10.9323 32.0518 1.6056 6.2296 -26.8803 0.1202 -2.2351 -6.1558 0.0000 0.0000 0.0000 25.1649 1.2269 -14.5763 -3.8793 -11.9980 35.7250 -1.9013 0.4353 -25.9721 -0.0178 -0.8617 2.3682 4.0931 -1.5385 -2.9394 0.2814 -2.2936 3.4309 -2.1648 -0.9911 5.0573 -12.4312 -11.6932 -1.3060 18.4653 -16.1364 1.1769 6.8057 -7.9322 3.1391 -0.0000 -0.0000 0.0000 -85.0420 -2.6682 20.7978 12.6331 -20.7473 -2.3217 -0.0000 0.0000 -5.8495 8.5131 -9.7473 -1.4517 -7.1250 0.0000 -0.0000 -13.1237 20.2408 7.9824 -0.0000 -0.0000 0.0000 84.5719 0.2371 29.8258 -15.4492 24.7682 -3.4119 0.0000 -0.0000 -0.6042 -9.0666 -4.3095 0.6870 7.1250 -0.0000 -0.0000 14.3730 -34.0630 3.9624
1.3460 17.4760 -17.9621 -2.8277 -7.2249 2.6548 0.0000 0.0000 0.0000 -15.7731 4.9031 -14.1485 3.1461 10.9278 32.0368 1.6038 6.2477 -26.8781 0.1193 -2.2265 -6.1320 0.0000 0.0000 0.0000 25.1800 1.1973 -14.5930 -3.8766 -11.9944 35.7120 -1.8991 0.4107 -25.9645 -0.0177 -0.8587 2.3600 4.0983 -1.5439 -2.9057 0.2821 -2.2993 3.4253 -2.1661 -0.9944 5.0316 -12.4471 -11.6962 -1.3014 18.4746 -16.1427 1.1869 6.8103 -7.9353 3.1444 -0.0000 -0.0000 0.0000 -85.0146 -2.6657 20.9879 12.7390 -20.9037 -2.3594 -0.0000 0.0000 -5.9654 8.5768 -9.8709 -1.4811 -7.1250 0.0000 -0.0000 -13.0709 20.1169 7.9859 -0.0000 -0.0000 0.0000 84.5916 0.1801 29.7932 -15.3892 24.6854 -3.3868 0.0000 -0.0000 -0.5609 -9.0636 -4.3117 0.6871 7.1250 -0.0000 -0.0000 14.3759 -34.0651 3.9624
1.3507 17.4766 -17.9660 -2.8521 -7.1788 2.6590 0.0000 0.0000 0.0000 -15.7647 4.8434 -14.1473 3.1436 10.9239 32.0237 1.6021 6.2706 -26.8793 0.1183 -2.2171 -6.1060 0.0000 0.0000 0.0000 25.1940 1.1765 -14.6134 -3.8742 -11.9911 35.7006 -1.8966 0.3877 -25.9546 -0.0176 -0.8555 2.3514 4.1015 -1.5463 -2.8769 0.2834 -2.3011 3.4194 -2.1656 -0.9958 5.0088 -12.4636 -11.6987 -1.2965 18.4849 -16.1481 1.1958 6.8155 -7.9379 3.1494 0.0000 -0.0000 0.0000 -84.9914 -2.6598 21.1775 12.8454 -21.0602 -2.3974 -0.0000 0.0000 -6.0725 8.6425 -9.9697 -1.5074 -7.1250 0.0000 -0.0000 -13.0184 20.0171 7.9821 0.0000 -0.0000 0.0000 84.6089 0.1279 29.7574 -15.3297 24.6033 -3.3620 0.0000 -0.0000 -0.5164 -9.0609 -4.3133 0.6872 7.1250 -0.0000 -0.0000 14.3783 -34.0664 3.9626
1.3554 17.4772 -17.9698 -2.8756 -7.1429 2.6666 0.0000 0.0000 0.0000 -15.7577 4.7874 -14.1511 3.1415 10.9207 32.0130 1.6007 6.2940 -26.8834 0.1173 -2.2076 -6.0798 0.0000 0.0000 0.0000 25.2063 1.1634 -14.6368 -3.8723 -11.9885 35.6914 -1.8939 0.3676 -25.9418 -0.0174 -0.8527 2.3436 4.1044 -1.5439 -2.8530 0.2828 -2.2967 3.4138 -2.1665 -0.9940 4.9895 -12.4762 -11.7019 -1.2914 18.4971 -16.1547 1.2039 6.8206 -7.9412 3.1541 -0.0000 0.0000 0.0000 -84.9681 -2.6544 21.3659 12.9499 -21.2137 -2.4351 -0.0000 0.0000 -6.1760 8.6997 -10.0444 -1.5287 -7.1250 0.0000 -0.0000 -12.9735 19.9416 7.9757 -0.0000 0.0000 0.0000 84.6272 0.0792 29.7158 -15.2714 24.5228 -3.3378 0.0000 -0.0000 -0.4728 -9.0579 -4.3171 0.6876 7.1250 -0.0000 -0.0000 14.3813 -34.0701 3.9622
1.3602 17.4778 -17.9738 -2.9009 -7.1220 2.6781 0.0000 0.0000 0.0000 -15.7500 4.7375 -14.1612 3.1400 10.9183 32.0047 1.5993 6.3196 -26.8886 0.1162 -2.1975 -6.0518 0.0000 0.0000 0.0000 25.2189 1.1606 -14.6639 -3.8709 -11.9866 35.6845 -1.8904 0.3508 -25.9230 -0.0173 -0.8481 2.3309 4.1088 -1.5358 -2.8319 0.2818 -2.2848 3.4081 -2.1685 -0.9884 4.9720 -12.4856 -11.7052 -1.2893 18.5100 -16.1618 1.2149 6.8251 -7.9444 3.1600 0.0000 0.0000 0.0000 -84.9443 -2.6503 21.5601 13.0505 -21.3612 -2.4717 -0.0000 0.0000 -6.2807 8.7623 -10.1070 -1.5494 -7.1250 0.0000 -0.0000 -12.9256 19.8775 7.9638 0.0000 0.0000 0.0000 84.6455 0.0354 29.6682 -15.2134 24.4425 -3.3137 0.0000 -0.0000 -0.4237 -9.0517 -4.3221 0.6879 7.1250 -0.0000 -0.0000 14.3873 -34.0746 3.9623
1.3651 17.4784 -17.9779 -2.9277 -7.1167 2.6968 0.0000 0.0000 0.0000 -15.7419 4.6940 -14.1815 3.1389 10.9166 31.9991 1.5977 6.3478 -26.8939 0.1153 -2.1890 -6.0283 0.0000 0.0000 0.0000 25.2319 1.1705 -14.6974 -3.8699 -11.9852 35.6798 -1.8860 0.3361 -25.8973 -0.0170 -0.8419 2.3138 4.1149 -1.5227 -2.8174 0.2799 -2.2666 3.4020 -2.1720 -0.9795 4.9583 -12.4937 -11.7075 -1.2883 18.5262 -16.1679 1.2275 6.8304 -7.9470 3.1667 -0.0000 0.0000 0.0000 -84.9189 -2.6495 21.7555 13.1463 -21.5012 -2.5066 -0.0000 0.0000 -6.3921 8.8203 -10.1628 -1.5683 -7.1250 0.0000 -0.0000 -12.8816 19.8204 7.9522 -0.0000 0.0000 0.0000 84.6629 -0.0055 29.6227 -15.1580 24.3657 -3.2908 0.0000 -0.0000 -0.3772 -9.0449 -4.3290 0.6884 7.1250 -0.0000 -0.0000 14.3940 -34.0811 3.9619
1.3699 17.4791 -17.9821 -2.9534 -7.1191 2.7144 0.0000 0.0000 0.0000 -15.7344 4.6567 -14.2028 3.1382 10.9155 31.9954 1.5961 6.3719 -26.8976 0.1143 -2.1800 -6.0032 0.0000 0.0000 0.0000 25.2432 1.1872 -14.7287 -3.8693 -11.9845 35.6771 -1.8813 0.3198 -25.8698 -0.0167 -0.8338 2.2918 4.1191 -1.5075 -2.8048 0.2769 -2.2456 3.3982 -2.1757 -0.9692 4.9483 -12.5021 -11.7099 -1.2905 18.5465 -16.1744 1.2428 6.8367 -7.9495 3.1751 -0.0000 0.0000 0.0000 -84.8924 -2.6536 21.9520 13.2358 -21.6317 -2.5395 -0.0000 0.0000 -6.5068 8.8812 -10.2212 -1.5883 -7.1250 0.0000 -0.0000 -12.8353 19.7604 7.9398 -0.0000 0.0000 0.0000 84.6792 -0.0416 29.5791 -15.1050 24.2921 -3.2690 0.0000 -0.0000 -0.3300 -9.0375 -4.3384 0.6894 7.1250 -0.0000 -0.0000 14.4015 -34.0900 3.9609
1.3749 17.4798 -17.9863 -2.9785 -7.1295 2.7336 0.0000 0.0000 0.0000 -15.7279 4.6231 -14.2272 3.1378 10.9148 31.9931 1.5943 6.3965 -26.8992 0.1134 -2.1714 -5.9795 0.0000 0.0000 0.0000 25.2536 1.2107 -14.7613 -3.8691 -11.9841 35.6758 -1.8764 0.3036 -25.8405 -0.0164 -0.8262 2.2708 4.1242 -1.4902 -2.7954 0.2715 -2.2220 3.3962 -2.1822 -0.9573 4.9420 -12.5054 -11.7130 -1.2974 18.5679 -16.1820 1.2605 6.8421 -7.9522 3.1849 0.0000 -0.0000 0.0000 -84.8634 -2.6631 22.1493 13.3207 -21.7552 -2.5709 -0.0000 0.0000 -6.6244 8.9430 -10.2697 -1.6070 -7.1250 0.0000 -0.0000 -12.7891 19.7103 7.9245 0.0000 -0.0000 0.0000 84.6968 -0.0710 29.5375 -15.0546 24.2221 -3.2483 0.0000 -0.0000 -0.2805 -9.0250 -4.3498 0.6902 7.1250 -0.0000 -0.0000 14.4136 -34.1006 3.9606
1.3799 17.4805 -17.9906 -3.0028 -7.1436 2.7505 0.0000 0.0000 0.0000 -15.7220 4.5949 -14.2502 3.1373 10.9141 31.9907 1.5924 6.4176 -26.8986 0.1125 -2.1624 -5.9546 0.0000 0.0000 0.0000 25.2631 1.2366 -14.7907 -3.8690 -11.9840 35.6755 -1.8713 0.2859 -25.8109 -0.0160 -0.8171 2.2457 4.1298 -1.4724 -2.7866 0.2642 -2.1977 3.3964 -2.1910 -0.9450 4.9383 -12.5087 -11.7162 -1.3051 18.5932 -16.1901 1.2787 6.8486 -7.9551 3.1955 0.0000 0.0000 0.0000 -84.8328 -2.6781 22.3403 13.3970 -21.8661 -2.5993 -0.0000 0.0000 -6.7405 8.9988 -10.3310 -1.6268 -7.1250 0.0000 -0.0000 -12.7464 19.6476 7.9151 0.0000 0.0000 0.0000 84.7141 -0.0950 29.5034 -15.0079 24.1571 -3.2292 0.0000 -0.0000 -0.2358 -9.0069 -4.3660 0.6914 7.1250 -0.0000 -0.0000 14.4311 -34.1157 3.9602
